HIERARCHY
ROOT joint_0
{
	OFFSET 0.000000 0.000000 0.000000
	CHANNELS 6 Xposition Yposition Zposition Zrotation Yrotation Xrotation 
	JOINT joint_1
	{
		OFFSET 0.587158 0.057678 95.682007
		CHANNELS 3 Zrotation Yrotation Xrotation
		JOINT joint_2
		{
			OFFSET -7.116699 -0.219910 87.157959
			CHANNELS 3 Zrotation Yrotation Xrotation
			JOINT joint_3
			{
				OFFSET -5.892822 -0.290222 87.151001
				CHANNELS 3 Zrotation Yrotation Xrotation
				JOINT joint_4
				{
					OFFSET 5.544678 -0.099609 123.768066
					CHANNELS 3 Zrotation Yrotation Xrotation
					JOINT joint_5
					{
						OFFSET 41.981201 4.519775 84.257935
						CHANNELS 3 Zrotation Yrotation Xrotation
						End Site
						{
							OFFSET 0.000000 0.000000 0.000000
						}
					}
				}
				JOINT joint_6
				{
					OFFSET 3.940918 -26.976501 69.308105
					CHANNELS 3 Zrotation Yrotation Xrotation
					JOINT joint_7
					{
						OFFSET 4.776123 -152.592468 -16.842041
						CHANNELS 3 Zrotation Yrotation Xrotation
						JOINT joint_8
						{
							OFFSET 54.421875 -30.424072 -248.864014
							CHANNELS 3 Zrotation Yrotation Xrotation
							JOINT joint_9
							{
								OFFSET 42.120117 -33.387878 -236.524963
								CHANNELS 3 Zrotation Yrotation Xrotation
								End Site
								{
									OFFSET 0.000000 0.000000 0.000000
								}
							}
						}
					}
				}
				JOINT joint_10
				{
					OFFSET 2.312012 26.904114 69.425049
					CHANNELS 3 Zrotation Yrotation Xrotation
					JOINT joint_11
					{
						OFFSET 0.971436 152.197815 -20.626953
						CHANNELS 3 Zrotation Yrotation Xrotation
						JOINT joint_12
						{
							OFFSET 49.954102 28.991455 -249.970093
							CHANNELS 3 Zrotation Yrotation Xrotation
							JOINT joint_13
							{
								OFFSET 48.146973 19.598389 -236.919922
								CHANNELS 3 Zrotation Yrotation Xrotation
								End Site
								{
									OFFSET 0.000000 0.000000 0.000000
								}
							}
						}
					}
				}
			}
		}
	}
	JOINT joint_14
	{
		OFFSET 16.305664 -89.442932 -108.224976
		CHANNELS 3 Zrotation Yrotation Xrotation
		JOINT joint_15
		{
			OFFSET -22.282471 13.437134 -412.904968
			CHANNELS 3 Zrotation Yrotation Xrotation
			JOINT joint_16
			{
				OFFSET -45.426025 14.484802 -445.892029
				CHANNELS 3 Zrotation Yrotation Xrotation
				JOINT joint_17
				{
					OFFSET 173.389404 -9.944031 -76.473001
					CHANNELS 3 Zrotation Yrotation Xrotation
					End Site
					{
						OFFSET 0.000000 0.000000 0.000000
					}
				}
			}
		}
	}
	JOINT joint_18
	{
		OFFSET 13.392822 89.408875 -108.653992
		CHANNELS 3 Zrotation Yrotation Xrotation
		JOINT joint_19
		{
			OFFSET -29.032959 24.483521 -411.977966
			CHANNELS 3 Zrotation Yrotation Xrotation
			JOINT joint_20
			{
				OFFSET -30.530029 28.986328 -446.453018
				CHANNELS 3 Zrotation Yrotation Xrotation
				JOINT joint_21
				{
					OFFSET 170.330078 33.400757 -76.698997
					CHANNELS 3 Zrotation Yrotation Xrotation
					End Site
					{
						OFFSET 0.000000 0.000000 0.000000
					}
				}
			}
		}
	}
}
MOTION
Frames: 9
Frame Time: 0.016667
-1702.911011 1111.413696 1061.253052 -55.850993 -0.856859 0.672382 2.708257 2.828614 0.018922 2.650308 -0.413654 -0.325082 2.621540 0.599079 -0.173779 3.252945 1.963904 -6.104578 0.000000 0.000000 0.000000 -2.183105 1.109869 -0.128106 1.475534 2.367025 -1.449341 1.157331 -1.982430 -0.009404 0.000000 0.000000 0.000000 5.025780 2.005454 -0.621730 0.335427 1.462350 2.712518 -0.267077 -1.760839 0.396915 0.000000 0.000000 0.000000 -0.880315 -0.292789 -8.071705 -2.325988 0.472236 0.416434 -2.210532 1.178804 -0.884077 0.000000 0.000000 0.000000 31.861911 -3.171344 0.844283 30.762955 -2.139858 7.605266 32.103113 11.570553 11.556518 0.000000 0.000000 0.000000 
-1702.888550 1111.374512 1061.238037 -55.853832 -0.867181 0.671143 2.708349 2.831393 0.013352 2.651497 -0.413550 -0.324238 2.622843 0.599534 -0.174623 3.253920 1.964350 -6.106944 0.000000 0.000000 0.000000 -2.180473 1.116173 -0.118756 1.475797 2.374302 -1.452719 1.153040 -1.976474 -0.018030 0.000000 0.000000 0.000000 5.021916 2.002490 -0.621597 0.336784 1.460808 2.706045 -0.262090 -1.743426 0.400240 0.000000 0.000000 0.000000 -0.880987 -0.297939 -8.074268 -2.326261 0.504788 0.420820 -2.208078 1.169129 -0.883596 0.000000 0.000000 0.000000 31.861216 -3.163286 0.850464 30.762521 -2.137046 7.616489 32.104871 11.581630 11.553940 0.000000 0.000000 0.000000 
-1702.872314 1111.327026 1061.223022 -55.855364 -0.877167 0.669868 2.708573 2.830874 0.008512 2.652996 -0.413063 -0.324039 2.624480 0.599788 -0.175582 3.253765 1.964984 -6.107394 0.000000 0.000000 0.000000 -2.179970 1.123178 -0.109510 1.475332 2.381700 -1.456133 1.148443 -1.968979 -0.023967 0.000000 0.000000 0.000000 5.018256 1.999588 -0.620019 0.337639 1.459520 2.699854 -0.258433 -1.729562 0.401406 0.000000 0.000000 0.000000 -0.882144 -0.301509 -8.075257 -2.326716 0.534157 0.423619 -2.206237 1.161731 -0.883253 0.000000 0.000000 0.000000 31.859946 -3.156415 0.857096 30.761484 -2.133127 7.628162 32.105972 11.593337 11.550919 0.000000 0.000000 0.000000 
-1702.864502 1111.262329 1061.208984 -55.854705 -0.885868 0.668099 2.708184 2.824841 0.002914 2.654308 -0.412113 -0.323630 2.625906 0.599508 -0.176586 3.251343 1.968601 -6.103950 0.000000 0.000000 0.000000 -2.180114 1.131864 -0.099019 1.474374 2.390517 -1.461646 1.144791 -1.961143 -0.022337 0.000000 0.000000 0.000000 5.017143 1.997282 -0.614783 0.337610 1.458914 2.692867 -0.256587 -1.720192 0.399324 0.000000 0.000000 0.000000 -0.884090 -0.302434 -8.072309 -2.326900 0.557350 0.422384 -2.205117 1.157247 -0.883057 0.000000 0.000000 0.000000 31.858213 -3.150890 0.865228 30.760068 -2.129228 7.638130 32.106472 11.604488 11.547802 0.000000 0.000000 0.000000 
-1702.863403 1111.188721 1061.194946 -55.852943 -0.894272 0.666328 2.708024 2.816145 -0.003247 2.656148 -0.412071 -0.322617 2.627806 0.599174 -0.177238 3.247643 1.974321 -6.098162 0.000000 0.000000 0.000000 -2.182533 1.141518 -0.089130 1.472584 2.399673 -1.467468 1.140797 -1.951554 -0.017500 0.000000 0.000000 0.000000 5.016506 1.995218 -0.608430 0.336950 1.458695 2.685650 -0.256015 -1.714195 0.395272 0.000000 0.000000 0.000000 -0.886758 -0.301768 -8.067574 -2.327508 0.577330 0.419242 -2.204882 1.154714 -0.883135 0.000000 0.000000 0.000000 31.856054 -3.146358 0.873724 30.758186 -2.124672 7.648725 32.106590 11.616734 11.544257 0.000000 0.000000 0.000000 
-1702.866089 1111.126465 1061.182983 -55.852952 -0.902967 0.664112 2.708980 2.806289 -0.004891 2.658720 -0.410984 -0.323764 2.630657 0.599090 -0.176852 3.244280 1.976543 -6.093376 0.000000 0.000000 0.000000 -2.184073 1.150922 -0.080952 1.470942 2.408366 -1.474054 1.136789 -1.943389 -0.016234 0.000000 0.000000 0.000000 5.015300 1.993129 -0.604781 0.336024 1.458425 2.681331 -0.257013 -1.713753 0.390150 0.000000 0.000000 0.000000 -0.888419 -0.301411 -8.063681 -2.327489 0.596268 0.417808 -2.203751 1.155974 -0.882619 0.000000 0.000000 0.000000 31.854605 -3.143908 0.881359 30.756569 -2.118240 7.662505 32.107135 11.628951 11.540761 0.000000 0.000000 0.000000 
-1702.872192 1111.084351 1061.171997 -55.855885 -0.912791 0.661188 2.710705 2.797193 -0.002617 2.661923 -0.408594 -0.323253 2.634023 0.596930 -0.177817 3.241919 1.974943 -6.090827 0.000000 0.000000 0.000000 -2.182292 1.160572 -0.075723 1.469953 2.417108 -1.480702 1.132743 -1.937661 -0.021067 0.000000 0.000000 0.000000 5.016105 1.992317 -0.603678 0.334068 1.458904 2.679341 -0.260300 -1.722883 0.385532 0.000000 0.000000 0.000000 -0.888721 -0.302187 -8.062221 -2.327232 0.616283 0.420342 -2.201628 1.161028 -0.881469 0.000000 0.000000 0.000000 31.853928 -3.144785 0.887096 30.754947 -2.108204 7.683413 32.108128 11.641462 11.537056 0.000000 0.000000 0.000000 
-1702.882080 1111.052246 1061.161011 -55.860772 -0.923300 0.657911 2.713425 2.786467 0.003469 2.665921 -0.403211 -0.324422 2.638457 0.592974 -0.177638 3.240067 1.971102 -6.089398 0.000000 0.000000 0.000000 -2.179450 1.170385 -0.073074 1.469036 2.425630 -1.487244 1.128401 -1.932870 -0.029636 0.000000 0.000000 0.000000 5.016392 1.992113 -0.603943 0.331424 1.459988 2.678672 -0.265174 -1.738072 0.380462 0.000000 0.000000 0.000000 -0.887921 -0.302664 -8.061486 -2.326326 0.635116 0.424272 -2.198679 1.168870 -0.879807 0.000000 0.000000 0.000000 31.853700 -3.147101 0.892342 30.753439 -2.096171 7.707394 32.109339 11.653951 11.533277 0.000000 0.000000 0.000000 
-1702.896606 1111.025269 1061.151978 -55.868230 -0.933157 0.655493 2.716979 2.776695 0.010902 2.670497 -0.400129 -0.326177 2.643405 0.590255 -0.177495 3.237644 1.969074 -6.086905 0.000000 0.000000 0.000000 -2.175483 1.178949 -0.069892 1.467129 2.432560 -1.495359 1.124006 -1.927594 -0.037265 0.000000 0.000000 0.000000 5.017062 1.990897 -0.605536 0.329672 1.460107 2.679077 -0.268892 -1.748661 0.375411 0.000000 0.000000 0.000000 -0.886236 -0.302086 -8.059786 -2.324360 0.649146 0.425547 -2.195450 1.177138 -0.877990 0.000000 0.000000 0.000000 31.854691 -3.147737 0.897032 30.753310 -2.086560 7.728401 32.111776 11.665803 11.530347 0.000000 0.000000 0.000000 
